<svg xmlns="http://www.w3.org/2000/svg" enable-background="new 0 0 24 24" height="24" viewBox="0 0 24 24" width="24" focusable="false" style="pointer-events: none; display: block; width: 100%; height: 100%;"><path d="M18.15 13.65 22 17.5l-3.85 3.85-.71-.71L20.09 18H19c-2.84 0-5.53-1.23-7.39-3.38l.76-.65C14.03 15.89 16.45 17 19 17h1.09l-2.65-2.65.71-.7zM19 7h1.09l-2.65 2.65.71.71L22 6.51l-3.85-3.85-.71.71L20.09 6H19c-3.58 0-6.86 1.95-8.57 5.09l-.73 1.34C8.16 15.25 5.21 17 2 17v1c3.58 0 6.86-1.95 8.57-5.09l.73-1.34C12.84 8.75 15.79 7 19 7zM8.59 9.98l.75-.66C7.49 7.21 4.81 6 2 6v1c2.52 0 4.92 1.09 6.59 2.98z"/></svg>